<?xml version="1.0" encoding="UTF-8"?>
<svg id="Layer_1" data-name="Layer 1" xmlns="http://www.w3.org/2000/svg" xmlns:xlink="http://www.w3.org/1999/xlink" viewBox="0 0 441.9 353.51">
  <defs>
    <style>
      .cls-1 {
        fill: none;
        stroke: #000;
      }

      .cls-1, .cls-2, .cls-3, .cls-4, .cls-5, .cls-6 {
        stroke-miterlimit: 10;
      }

      .cls-2 {
        fill: #ddc9e2;
      }

      .cls-2, .cls-3, .cls-4, .cls-5, .cls-6 {
        stroke: #231f20;
      }

      .cls-3 {
        fill: url(#White_Black);
      }

      .cls-4 {
        fill: #a182bc;
      }

      .cls-5 {
        fill: url(#White_Black-2);
      }

      .cls-6 {
        fill: #636466;
      }
    </style>
    <linearGradient id="White_Black" data-name="White, Black" x1="61.59" y1="204.44" x2="165.01" y2="204.44" gradientUnits="userSpaceOnUse">
      <stop offset="0" stop-color="#fff"/>
      <stop offset="1" stop-color="#231f20"/>
    </linearGradient>
    <linearGradient id="White_Black-2" data-name="White, Black" x1="241.38" y1="204.6" x2="344.81" y2="204.6" gradientTransform="translate(602.91 388.63) rotate(176.36)" xlink:href="#White_Black"/>
  </defs>
  <circle class="cls-6" cx="298.67" cy="205.27" r="17.9"/>
  <circle class="cls-6" cx="117.63" cy="205.27" r="17.9"/>
  <path class="cls-4" d="M164.57,157.19c-7.17,3.52-15.69,8.45-24.57,15.32-10.55,8.17-18.39,16.62-24,23.62-.69.88-1.71,2.42-2.29,4.57-.77,2.89-.3,5.32,0,6.48,6.89-7.67,15.88-16.42,27.24-25,9.73-7.35,19.06-12.94,27.24-17.19"/>
  <path class="cls-3" d="M115.85,155.29c-24.12,2.51-42.78,18.71-46.19,38.47-2.79,16.13,5.49,29.39,7.96,33.02,14.72,21.59,40.93,20.39,43.5,20.22,28.49-1.81,42.9-28.23,43.88-30.11-.99,2.63-11.1,28.29-37.61,35.36-20.11,5.36-41.76-2.07-55.76-19.08-.96-1.34-16.17-23.27-7.26-47.43,7.47-20.27,28.65-33.26,51.47-30.45Z"/>
  <path class="cls-4" d="M124.57,102.95c-.03.56,4.85,1.02,12.95,4.19,2.43.95,4.49,1.89,6.1,2.67,7.05,15.46,14.09,30.93,21.14,46.39,10.6,23.27,21.21,46.53,31.81,69.8,4.98-13.33,15.02-34.82,35.03-55.24,13.95-14.24,28.19-23.31,38.88-28.95,9.27,20.57,18.54,41.14,27.81,61.71.45-3.35.73-7.95,0-13.33-.71-5.24-2.14-9.5-3.43-12.57-4.67-12.19-9.5-24.48-14.48-36.88-2.27-5.65-4.56-11.26-6.85-16.84,6.28,0,11.16-.2,14.48-.38,3.31-.18,6.71-.43,8,1.52.64.97.56,2.17.38,3.05-.53,1.1-1.75,3.24-4.19,4.95-3.36,2.35-6.84,2.34-8,2.29.91.6,5.26,3.3,10.29,1.9,1.64-.45,2.91-1.22,3.81-1.9.97-.73,3.79-3.07,4.95-7.24.91-3.26.34-6,0-7.24-.02-.51-.19-3.01-2.29-4.95-1.84-1.71-3.99-1.88-4.57-1.9-.76,1.78-1.52,3.56-2.29,5.33l-30.48-.38.76,9.9c-12.48.13-28.95,1.52-47.62,6.48-19.27,5.12-34.65,12.4-45.71,18.67-6.73-14.98-13.46-29.97-20.19-44.95,2.36-.25,5.07-.71,8-1.52,1.66-.46,3.18-.98,4.57-1.52,1.78-1.24,3.56-2.48,5.33-3.72-34.05-.6-44.15-.13-44.19.67Z"/>
  <path class="cls-2" d="M175.05,162.99c11.04-5.94,25.35-12.44,42.67-17.52,17.63-5.18,33.44-7.44,46.1-8.38-11.91,7.11-28.4,18.87-43.9,37.33-11.38,13.56-18.93,26.79-23.91,37.33l-20.95-48.76Z"/>
  <path class="cls-1" d="M354.57,223.73c.9,9.59-4.16,19.54-10.74,21.09"/>
  <path class="cls-1" d="M60.64,130.83c3.27-.27,6.6.12,9.71,1.14"/>
  <path class="cls-1" d="M74.89,158.72c-6.51,2.01-11.24,8.73-10.94,15.53"/>
  <path class="cls-5" d="M297.99,252.25c23.91-4.03,41.5-21.39,43.65-41.32,1.76-16.27-7.35-28.99-10.04-32.45-16.06-20.62-42.14-17.75-44.7-17.42-28.32,3.62-41.02,30.89-41.88,32.83.82-2.69,9.29-28.93,35.29-37.67,19.73-6.63,41.81-.59,56.86,15.5,1.05,1.28,17.61,22.19,10.25,46.87-6.17,20.7-26.48,35.01-49.43,33.66Z"/>
</svg>